<?xml version="1.0" standalone="no"?>
<!DOCTYPE svg PUBLIC "-//W3C//DTD SVG 20010904//EN"
 "http://www.w3.org/TR/2001/REC-SVG-20010904/DTD/svg10.dtd">
<svg version="1.0" xmlns="http://www.w3.org/2000/svg"
 width="700.000000pt" height="700.000000pt" viewBox="0 0 700.000000 700.000000"
 preserveAspectRatio="xMidYMid meet">
<metadata>
Created by potrace 1.11, written by Peter Selinger 2001-2013
</metadata>
<g transform="translate(0.000000,700.000000) scale(0.100000,-0.100000)"
fill="#000000" stroke="none">
<path d="M1609 5935 c-177 -35 -341 -148 -445 -306 -137 -209 -151 -460 -38
-689 39 -79 62 -110 133 -181 72 -72 102 -94 181 -132 209 -102 411 -102 620
0 79 38 109 60 181 132 72 72 94 102 132 181 114 234 100 475 -39 690 -156
241 -442 361 -725 305z"/>
<path d="M5109 5935 c-177 -35 -341 -148 -445 -306 -137 -209 -151 -460 -38
-689 39 -79 62 -110 133 -181 72 -72 102 -94 181 -132 209 -102 411 -102 620
0 79 38 109 60 181 132 72 72 94 102 132 181 114 234 100 475 -39 690 -156
241 -442 361 -725 305z"/>
<path d="M3359 4185 c-270 -54 -493 -280 -545 -552 -30 -157 -10 -296 62 -443
39 -79 62 -110 133 -181 72 -72 102 -94 181 -132 209 -102 411 -102 620 0 79
38 109 60 181 132 72 72 94 102 132 181 114 234 100 475 -39 690 -156 241
-442 361 -725 305z"/>
<path d="M1609 2435 c-177 -35 -341 -148 -445 -306 -137 -209 -151 -460 -38
-689 39 -79 62 -110 133 -181 72 -72 102 -94 181 -132 209 -102 411 -102 620
0 79 38 109 60 181 132 72 72 94 102 132 181 114 234 100 475 -39 690 -156
241 -442 361 -725 305z"/>
<path d="M5109 2435 c-177 -35 -341 -148 -445 -306 -137 -209 -151 -460 -38
-689 39 -79 62 -110 133 -181 72 -72 102 -94 181 -132 209 -102 411 -102 620
0 79 38 109 60 181 132 72 72 94 102 132 181 114 234 100 475 -39 690 -156
241 -442 361 -725 305z"/>
</g>
</svg>
